<svg viewBox="0 0 512 512" xmlns="http://www.w3.org/2000/svg" xmlns:xlink="http://www.w3.org/1999/xlink" width="300" height="300" version="1.1" xmlns:svgjs="http://svgjs.dev/svgjs"><circle r="256" cx="256" cy="256" shape="true" transform="matrix(1,0,0,1,0,0)" fill-opacity="1" fill="#ff0000"/><g width="100%" height="100%" transform="matrix(1,0,0,1,0,0)"><linearGradient id="a" gradientTransform="matrix(1 0 0 -1 0 -17466)" gradientUnits="userSpaceOnUse" x1="0" x2="512" y1="-17722" y2="-17722"><stop stop-opacity="1" stop-color="#31d8ff" offset="0"/><stop stop-opacity="1" stop-color="#ff80ff" offset="1"/></linearGradient><path d="m512 256c0 141.386719-114.613281 256-256 256s-256-114.613281-256-256 114.613281-256 256-256 256 114.613281 256 256zm0 0" fill="url(#a)" data-original-color="a" stroke="none" stroke-opacity="1"/><g fill="#fff"><path d="m416 117.5h-81c-8.285156 0-15 6.714844-15 15v66h-66c-8.285156 0-15 6.714844-15 15v66h-66c-8.285156 0-15 6.714844-15 15v66h-66c-8.285156 0-15 6.714844-15 15s6.714844 15 15 15h81c3.980469 0 7.792969-1.578125 10.609375-4.394531 2.8125-2.8125 4.390625-6.628907 4.390625-10.605469v-66h66c3.980469 0 7.792969-1.578125 10.605469-4.394531 2.8125-2.8125 4.394531-6.628907 4.394531-10.605469v-66h66c3.976562 0 7.792969-1.578125 10.605469-4.394531 2.8125-2.8125 4.394531-6.628907 4.394531-10.605469l-.003906-66h66.003906c8.285156 0 15-6.714844 15-15s-6.714844-15-15-15zm0 0" fill="#ffffff" fill-opacity="1" data-original-color="#ffffffff" stroke="none" stroke-opacity="1"/><path d="m402.808594 284.726562c-.738282-7.570312-7.332032-13.523437-14.929688-13.519531h-52.164062c-8.285156 0-15 6.714844-15 15 0 8.285157 6.714844 15 15 15h15.957031l-63.6875 63.6875c-5.859375 5.855469-5.859375 15.355469 0 21.210938 2.929687 2.929687 6.765625 4.394531 10.605469 4.394531s7.679687-1.464844 10.605468-4.394531l63.6875-63.683594v15.953125c0 8.285156 6.71875 15 15 15 8.285157 0 15-6.714844 15-15v-52.167969c0-.492187-.023437-.988281-.074218-1.480469-.023438-.226562.046875.476563 0 0zm0 0" fill="#ffffff" fill-opacity="1" data-original-color="#ffffffff" stroke="none" stroke-opacity="1"/></g></g></svg>